<?xml version="1.0" encoding="UTF-8" standalone="no"?>
<!-- Generator: Adobe Illustrator 20.1.0, SVG Export Plug-In . SVG Version: 6.00 Build 0)  -->

<svg
   version="1.0"
   id="Layer_1"
   x="0px"
   y="0px"
   viewBox="0 0 223.5 66"
   style="enable-background:new 0 0 223.5 66;"
   xml:space="preserve"
   sodipodi:docname="gams_logo.svg"
   inkscape:version="1.1 (c4e8f9ed74, 2021-05-24)"
   xmlns:inkscape="http://www.inkscape.org/namespaces/inkscape"
   xmlns:sodipodi="http://sodipodi.sourceforge.net/DTD/sodipodi-0.dtd"
   xmlns="http://www.w3.org/2000/svg"
   xmlns:svg="http://www.w3.org/2000/svg"
   xmlns:rdf="http://www.w3.org/1999/02/22-rdf-syntax-ns#"
   xmlns:cc="http://creativecommons.org/ns#"
   xmlns:dc="http://purl.org/dc/elements/1.1/"><metadata
   id="metadata29"><rdf:RDF><cc:Work
       rdf:about=""><dc:format>image/svg+xml</dc:format><dc:type
         rdf:resource="http://purl.org/dc/dcmitype/StillImage" /></cc:Work></rdf:RDF></metadata><defs
   id="defs27" /><sodipodi:namedview
   pagecolor="#ffffff"
   bordercolor="#666666"
   borderopacity="1"
   objecttolerance="10"
   gridtolerance="10"
   guidetolerance="10"
   inkscape:pageopacity="0"
   inkscape:pageshadow="2"
   inkscape:window-width="1546"
   inkscape:window-height="1368"
   id="namedview25"
   showgrid="false"
   inkscape:zoom="6.783163"
   inkscape:cx="77.544945"
   inkscape:cy="58.674692"
   inkscape:window-x="2928"
   inkscape:window-y="38"
   inkscape:window-maximized="1"
   inkscape:current-layer="Layer_1"
   inkscape:pagecheckerboard="0" />
<style
   type="text/css"
   id="style2">
	.st0{fill:#FFFFFF;}
	.st1{fill:#F39619;}
</style>
<rect
   class="st0"
   width="220.30426"
   height="66"
   id="rect4"
   x="0.3091726"
   y="0"
   style="stroke-width:0.992825" />
<path
   d="m 85.31343,19.3 c 6.4,0 9.7,3.2 9.7,3.2 l -1.9,2.8 c 0,0 -3,-2.6 -7.5,-2.6 -6.3,0 -10.1,4.6 -10.1,10.3 0,6.2 4.2,10.5 9.9,10.5 4.6,0 7.6,-3.3 7.6,-3.3 v -3.9 h -4.4 V 33 h 7.8 v 13.5 h -3.3 v -1.7 c 0,-0.6 0,-1.1 0,-1.1 h -0.1 c 0,0 -2.9,3.3 -8.2,3.3 -7.2,0 -13.2,-5.7 -13.2,-13.9 0.1,-7.7 5.9,-13.8 13.7,-13.8 z"
   id="path6"
   style="fill:#2b1a02;fill-opacity:1" />
<path
   d="m 127.31343,38.8 h -10.1 l -2.7,7.7 h -3.9 l 9.6,-26.8 h 3.9 l 9.6,26.8 h -3.9 z m -5.1,-15.4 c 0,0 -0.6,2.4 -1.1,3.8 l -3,8.5 h 8.1 l -3,-8.5 c -0.3,-1.3 -0.9,-3.8 -1,-3.8 z"
   id="path8"
   style="fill:#2b1a02;fill-opacity:1" />
<path
   d="m 150.31343,19.7 h 3.9 l 6.1,14.5 c 0.6,1.5 1.3,3.6 1.3,3.6 h 0.1 c 0,0 0.7,-2.1 1.3,-3.6 l 6.1,-14.5 h 3.9 l 2.2,26.8 h -3.7 l -1.3,-16.9 c -0.1,-1.6 0,-3.9 0,-3.9 h -0.1 c 0,0 -0.8,2.5 -1.4,3.9 l -5.3,12.1 h -3.3 l -5.3,-12.1 c -0.6,-1.4 -1.4,-4 -1.4,-4 h -0.1 c 0,0 0,2.4 -0.1,4 l -1.3,16.9 h -3.8 z"
   id="path10"
   style="fill:#2b1a02;fill-opacity:1" />
<path
   d="m 192.71343,40.7 c 0,0 2.8,2.9 6.8,2.9 2.5,0 4.6,-1.4 4.6,-3.9 0,-5.8 -13,-4.5 -13,-12.8 0,-4.2 3.6,-7.5 8.6,-7.5 5,0 7.6,2.7 7.6,2.7 l -1.7,3.1 c 0,0 -2.5,-2.3 -5.9,-2.3 -2.8,0 -4.9,1.8 -4.9,3.9 0,5.5 13,4.1 13,12.7 0,4.1 -3.2,7.5 -8.5,7.5 -5.7,0 -8.9,-3.5 -8.9,-3.5 z"
   id="path12"
   style="fill:#2b1a02;fill-opacity:1" />
<g
   id="g22"
   transform="translate(-2.8865705,-0.25733488)">
	<path
   d="M 3.1,34 V 62.7 H 31 V 35.2 C 18.2,25 6,32.1 3.1,34 Z"
   id="path14"
   style="fill:#2b1a02;fill-opacity:1" />
	<path
   d="M 34.5,36.6 V 62.7 H 62.4 V 27.8 c -1.5,1.6 -14,12.6 -27.9,8.8 z"
   id="path16"
   style="fill:#2b1a02;fill-opacity:1" />
	<g
   id="g20">
		<path
   class="st1"
   d="M 32.9,30.4 C 47.1,35.7 62.4,17.8 62.4,17.8 V 3.2 H 3.1 v 28 c 10.6,-6.7 15.9,-6 29.8,-0.8 z"
   id="path18" />
	</g>
</g>
</svg>
